<svg aria-hidden="true" style="position:absolute;width:0;height:0;overflow:hidden" xmlns="http://www.w3.org/2000/svg"><defs><symbol id="icon-youtube" viewBox="0 0 36 24"><path d="M34.145 1.713C35.785 3.302 36 5.825 36 12s-.215 8.698-1.855 10.287C32.505 23.875 30.797 24 18 24s-14.505-.126-16.145-1.713C.215 20.699 0 18.175 0 12S.215 3.302 1.855 1.713 5.203 0 18 0s14.505.126 16.145 1.713zM14.93 17.477l9.206-5.197-9.206-5.117v10.314z"/></symbol><symbol id="icon-facebook" viewBox="0 0 15 24"><path d="M.467 12.782h3.176v10.83c0 .214.209.387.467.387h5.384c.258 0 .467-.173.467-.387V12.833h3.651c.237 0 .437-.148.464-.343l.554-3.987c.015-.11-.027-.22-.115-.302s-.216-.13-.349-.13H9.961V5.572c0-.753.49-1.136 1.456-1.136h2.749c.258 0 .467-.173.467-.387V.389c0-.214-.209-.387-.467-.387h-3.789a4.582 4.582 0 0 0-.174-.003c-.657 0-2.943.107-4.748 1.483-2 1.525-1.722 3.35-1.656 3.666v2.923H.465c-.258 0-.467.173-.467.387v3.936c0 .214.209.387.467.387z"/></symbol><symbol id="icon-instagram" viewBox="0 0 24 24"><path d="M8 3C5.243 3 3 5.243 3 8v8c0 2.757 2.243 5 5 5h8c2.757 0 5-2.243 5-5V8c0-2.757-2.243-5-5-5H8zm0 2h8c1.654 0 3 1.346 3 3v8c0 1.654-1.346 3-3 3H8c-1.654 0-3-1.346-3-3V8c0-1.654 1.346-3 3-3zm9 1a1 1 0 0 0 0 2 1 1 0 0 0 0-2zm-5 1c-2.757 0-5 2.243-5 5s2.243 5 5 5 5-2.243 5-5-2.243-5-5-5zm0 2c1.654 0 3 1.346 3 3s-1.346 3-3 3-3-1.346-3-3 1.346-3 3-3z"/></symbol></defs></svg>