<svg aria-hidden="true" style="position: absolute; width: 0; height: 0; overflow: hidden;" version="1.1" xmlns="http://www.w3.org/2000/svg" xmlns:xlink="http://www.w3.org/1999/xlink">
<defs>
<symbol id="icon-travel" viewBox="0 0 20 32">
<path  d="M3.030 32l4.502-23.070c0.124-0.595 0.409-1.054 0.856-1.377s0.918-0.484 1.414-0.484c0.496 0 0.961 0.112 1.395 0.335s0.788 0.546 1.060 0.967l1.451 2.381c0.471 0.794 1.122 1.501 1.954 2.121s1.805 1.104 2.921 1.451v-2.791h1.488v20.465h-1.488v-15.405c-1.265-0.273-2.456-0.757-3.572-1.451s-2.109-1.55-2.977-2.567l-1.079 5.395 3.163 3.014v11.014h-2.233v-9.079l-3.721-3.535-2.754 12.614h-2.381zM3.662 17.005l-2.791-0.521c-0.248-0.050-0.465-0.211-0.651-0.484s-0.254-0.546-0.205-0.819l1.116-5.842c0.124-0.719 0.484-1.271 1.079-1.656s1.253-0.515 1.972-0.391l1.34 0.26-1.86 9.451zM12.258 5.433c-0.744 0-1.383-0.267-1.916-0.8s-0.8-1.172-0.8-1.916 0.267-1.383 0.8-1.916c0.533-0.533 1.172-0.8 1.916-0.8s1.383 0.267 1.916 0.8c0.533 0.533 0.8 1.172 0.8 1.916s-0.267 1.383-0.8 1.916c-0.533 0.533-1.172 0.8-1.916 0.8z"></path>
</symbol>
<symbol id="icon-ski" viewBox="0 0 31 32">
<path  d="M25.756 32c-0.624 0-1.249-0.052-1.873-0.156s-1.236-0.247-1.834-0.429l-22.049-8.039 0.507-1.483 11.278 4.098 2.732-7.063-6.205-6.478c-0.598-0.676-0.833-1.444-0.702-2.302s0.572-1.509 1.327-1.951l6.049-3.512c0.364-0.208 0.755-0.319 1.171-0.332s0.806 0.046 1.171 0.176c0.364 0.13 0.696 0.338 0.995 0.624s0.514 0.624 0.644 1.015l0.507 1.678c0.442 1.405 1.086 2.537 1.932 3.395s1.88 1.496 3.102 1.912l0.82-2.498 1.483 0.429-1.522 4.722c-1.769-0.364-3.317-1.067-4.644-2.107s-2.341-2.445-3.044-4.215l-5.151 2.966 4.839 5.659-3.317 8.663 5.58 2.029 3.668-11.395c0.26 0.078 0.507 0.15 0.741 0.215s0.468 0.124 0.702 0.176l-3.668 11.551 1.6 0.546c0.494 0.182 1.002 0.319 1.522 0.41s1.067 0.137 1.639 0.137c0.755 0 1.483-0.072 2.185-0.215s1.392-0.384 2.068-0.722l1.171 1.171c-0.859 0.442-1.73 0.774-2.615 0.995s-1.821 0.332-2.81 0.332zM22.907 5.698c-0.78 0-1.45-0.28-2.010-0.839s-0.839-1.229-0.839-2.010c0-0.78 0.28-1.45 0.839-2.010s1.229-0.839 2.010-0.839c0.78 0 1.45 0.28 2.010 0.839s0.839 1.229 0.839 2.010c0 0.78-0.28 1.45-0.839 2.010s-1.229 0.839-2.010 0.839z"></path>
</symbol>
<symbol id="icon-book" viewBox="0 0 32 32">
<path   d="M7.564 22.545c1.299 0 2.563 0.151 3.792 0.455s2.438 0.758 3.626 1.364v-15.527c-1.091-0.727-2.274-1.291-3.55-1.691s-2.565-0.6-3.868-0.6c-0.921 0-1.824 0.115-2.709 0.345s-1.776 0.515-2.673 0.855v15.782c0.752-0.339 1.606-0.588 2.564-0.745s1.897-0.236 2.818-0.236zM17.164 24.364c1.212-0.606 2.4-1.061 3.564-1.364s2.4-0.455 3.709-0.455c0.921 0 1.873 0.073 2.855 0.218s1.824 0.339 2.527 0.582v-15.6c-0.824-0.412-1.695-0.715-2.612-0.909s-1.84-0.291-2.77-0.291c-1.309 0-2.576 0.2-3.8 0.6s-2.382 0.964-3.473 1.691v15.527zM16.073 27.636c-1.236-0.921-2.582-1.63-4.036-2.127s-2.945-0.745-4.473-0.745c-0.886 0-1.756 0.109-2.61 0.327s-1.705 0.485-2.554 0.8c-0.56 0.267-1.1 0.23-1.62-0.109s-0.78-0.824-0.78-1.455v-16.836c0-0.364 0.085-0.697 0.255-1s0.424-0.539 0.764-0.709c1.018-0.485 2.078-0.842 3.178-1.073s2.223-0.345 3.367-0.345c1.527 0 3.012 0.206 4.455 0.618s2.794 1.042 4.055 1.891c1.236-0.848 2.564-1.479 3.982-1.891s2.879-0.618 4.382-0.618c1.136 0 2.251 0.115 3.343 0.345s2.148 0.588 3.166 1.073c0.339 0.17 0.6 0.406 0.782 0.709s0.273 0.636 0.273 1v16.836c0 0.676-0.273 1.191-0.818 1.544s-1.085 0.36-1.618 0.020c-0.824-0.339-1.663-0.612-2.518-0.818s-1.724-0.309-2.61-0.309c-1.527 0-2.994 0.255-4.4 0.764s-2.727 1.212-3.964 2.109z"></path>
</symbol>
<symbol id="icon-diving" viewBox="0 0 32 32">
<path  d="M3.782 31.273l-1.745-1.309 3.964-5.309 1.673-7.091c0.121-0.509 0.339-0.945 0.655-1.309s0.739-0.63 1.273-0.8l13.927-4.255 3.055-6.4 4.073-4.073 1.345 1.345-3.673 4-2.436 6.8-7.127 4.982-8.655 2.727-2.218 5.2-4.109 5.491zM2.655 19.382c-0.727 0-1.351-0.261-1.873-0.782s-0.782-1.145-0.782-1.873c0-0.727 0.261-1.351 0.782-1.873s1.145-0.782 1.873-0.782c0.727 0 1.351 0.261 1.873 0.782s0.782 1.145 0.782 1.873c0 0.727-0.261 1.352-0.782 1.873s-1.145 0.782-1.873 0.782zM10.655 13.345c-0.485 0.145-0.939 0.091-1.364-0.164s-0.709-0.624-0.855-1.109c-0.121-0.485-0.067-0.939 0.164-1.364s0.588-0.709 1.073-0.855l6.655-2 0.945 3.527-6.618 1.964z"></path>
</symbol>
<symbol id="icon-facebook" viewBox="0 0 32 32">
<path  opacity="0.1"  d="M32 16c0 4.418-1.791 8.418-4.686 11.314s-6.895 4.686-11.314 4.686c-4.418 0-8.418-1.791-11.314-4.686s-4.686-6.895-4.686-11.314c0-4.418 1.791-8.418 4.686-11.314s6.895-4.686 11.314-4.686c4.418 0 8.418 1.791 11.314 4.686s4.686 6.895 4.686 11.314z"></path>
<path  d="M19.198 9.588h1.753v-3.053c-0.302-0.042-1.342-0.135-2.554-0.135-2.527 0-4.258 1.59-4.258 4.511v2.689h-2.789v3.413h2.789v8.587h3.419v-8.586h2.676l0.425-3.413h-3.102v-2.351c0.001-0.986 0.266-1.662 1.641-1.662z"></path>
</symbol>
<symbol id="icon-instagram" viewBox="0 0 32 32">
<path  opacity="0.1"  d="M32 16c0 4.418-1.791 8.418-4.686 11.314s-6.895 4.686-11.314 4.686c-4.418 0-8.418-1.791-11.314-4.686s-4.686-6.895-4.686-11.314c0-4.418 1.791-8.418 4.686-11.314s6.895-4.686 11.314-4.686c4.418 0 8.418 1.791 11.314 4.686s4.686 6.895 4.686 11.314z"></path>
<path  d="M25.581 12.045c-0.045-1.020-0.21-1.722-0.446-2.329-0.244-0.645-0.619-1.223-1.11-1.703-0.48-0.488-1.061-0.866-1.699-1.106-0.611-0.236-1.309-0.401-2.329-0.446-1.028-0.049-1.354-0.060-3.961-0.060s-2.933 0.011-3.957 0.056c-1.020 0.045-1.722 0.21-2.329 0.446-0.645 0.244-1.223 0.619-1.703 1.11-0.488 0.48-0.866 1.062-1.107 1.699-0.236 0.611-0.401 1.309-0.446 2.329-0.049 1.028-0.060 1.354-0.060 3.961s0.011 2.933 0.056 3.957c0.045 1.020 0.21 1.722 0.446 2.329 0.244 0.645 0.623 1.223 1.11 1.703 0.48 0.488 1.061 0.866 1.699 1.107 0.611 0.236 1.309 0.401 2.329 0.446 1.024 0.045 1.35 0.056 3.957 0.056s2.933-0.011 3.957-0.056c1.020-0.045 1.722-0.21 2.329-0.446 1.29-0.499 2.311-1.519 2.809-2.809 0.236-0.611 0.401-1.309 0.446-2.329 0.045-1.024 0.056-1.35 0.056-3.957s-0.004-2.933-0.049-3.957zM23.852 19.884c-0.041 0.938-0.199 1.444-0.33 1.782-0.323 0.836-0.986 1.5-1.823 1.823-0.338 0.131-0.848 0.289-1.782 0.33-1.013 0.045-1.316 0.056-3.878 0.056s-2.869-0.011-3.878-0.056c-0.938-0.041-1.444-0.199-1.782-0.33-0.416-0.154-0.795-0.398-1.103-0.716-0.319-0.311-0.563-0.686-0.716-1.103-0.131-0.338-0.289-0.848-0.33-1.782-0.045-1.013-0.056-1.317-0.056-3.878s0.011-2.869 0.056-3.878c0.041-0.938 0.199-1.444 0.33-1.782 0.154-0.416 0.398-0.795 0.72-1.103 0.311-0.319 0.686-0.563 1.103-0.716 0.338-0.131 0.848-0.289 1.782-0.33 1.013-0.045 1.317-0.056 3.878-0.056 2.566 0 2.869 0.011 3.878 0.056 0.938 0.041 1.444 0.199 1.782 0.33 0.416 0.154 0.795 0.398 1.103 0.716 0.319 0.311 0.563 0.686 0.716 1.103 0.131 0.338 0.289 0.848 0.33 1.782 0.045 1.013 0.056 1.316 0.056 3.878s-0.011 2.862-0.056 3.875z"></path>
<path  d="M16.036 11.070c-2.723 0-4.932 2.209-4.932 4.932s2.209 4.932 4.932 4.932c2.723 0 4.932-2.209 4.932-4.932s-2.209-4.932-4.932-4.932zM16.036 19.201c-1.767 0-3.199-1.433-3.199-3.199s1.433-3.199 3.199-3.199c1.767 0 3.199 1.433 3.199 3.199s-1.433 3.199-3.199 3.199z"></path>
<path  d="M22.314 10.875c0 0.636-0.516 1.151-1.152 1.151s-1.151-0.516-1.151-1.151c0-0.636 0.516-1.152 1.151-1.152s1.152 0.515 1.152 1.152z"></path>
</symbol>
<symbol id="icon-linkedin" viewBox="0 0 32 32">
<path opacity="0.1"  d="M32 16c0 4.418-1.791 8.418-4.686 11.314s-6.895 4.686-11.314 4.686c-4.418 0-8.418-1.791-11.314-4.686s-4.686-6.895-4.686-11.314c0-4.418 1.791-8.418 4.686-11.314s6.895-4.686 11.314-4.686c4.418 0 8.418 1.791 11.314 4.686s4.686 6.895 4.686 11.314z"></path>
<path  d="M25.595 25.6v-0.001h0.005v-7.042c0-3.445-0.742-6.098-4.769-6.098-1.936 0-3.235 1.062-3.766 2.070h-0.056v-1.748h-3.818v12.818h3.976v-6.347c0-1.671 0.317-3.287 2.386-3.287 2.039 0 2.070 1.907 2.070 3.394v6.241h3.972z"></path>
<path  d="M6.717 12.782h3.981v12.818h-3.981v-12.818z"></path>
<path  d="M8.706 6.4c-1.273 0-2.306 1.033-2.306 2.306s1.033 2.327 2.306 2.327c1.273 0 2.306-1.054 2.306-2.327s-1.034-2.306-2.306-2.306v0z"></path>
</symbol>
<symbol id="icon-twitter" viewBox="0 0 32 32">
<path opacity="0.1" d="M32 16c0 4.418-1.791 8.418-4.686 11.314s-6.895 4.686-11.314 4.686c-4.418 0-8.418-1.791-11.314-4.686s-4.686-6.895-4.686-11.314c0-4.418 1.791-8.418 4.686-11.314s6.895-4.686 11.314-4.686c4.418 0 8.418 1.791 11.314 4.686s4.686 6.895 4.686 11.314z"></path>
<path  d="M25.6 10.047c-0.714 0.313-1.475 0.521-2.268 0.622 0.816-0.487 1.439-1.253 1.732-2.176-0.761 0.454-1.601 0.774-2.496 0.953-0.722-0.769-1.752-1.246-2.875-1.246-2.179 0-3.934 1.769-3.934 3.937 0 0.312 0.026 0.612 0.091 0.898-3.272-0.16-6.168-1.728-8.113-4.117-0.34 0.589-0.539 1.264-0.539 1.99 0 1.363 0.702 2.572 1.748 3.271-0.632-0.012-1.253-0.196-1.778-0.485 0 0.012 0 0.028 0 0.043 0 1.913 1.364 3.502 3.154 3.868-0.32 0.088-0.67 0.13-1.032 0.13-0.252 0-0.506-0.014-0.745-0.067 0.51 1.559 1.957 2.705 3.678 2.742-1.339 1.048-3.040 1.679-4.88 1.679-0.323 0-0.632-0.014-0.942-0.054 1.744 1.124 3.81 1.766 6.038 1.766 7.243 0 11.203-6 11.203-11.201 0-0.174-0.006-0.342-0.014-0.509 0.781-0.554 1.438-1.247 1.973-2.044z"></path>
</symbol>
<symbol id="icon-desktop" viewBox="0 0 32 32">
<path d="M11.133 28v-2h2.867v-3.333h-9.333q-0.8 0-1.4-0.6t-0.6-1.4v-14.667q0-0.8 0.6-1.4t1.4-0.6h22.667q0.8 0 1.4 0.6t0.6 1.4v14.667q0 0.8-0.6 1.4t-1.4 0.6h-9.333v3.333h2.867v2h-9.733zM4.667 20.667h22.667v-14.667h-22.667v14.667zM4.667 20.667v0z"></path>
</symbol>
<symbol id="icon-mail" viewBox="0 0 32 32">
<path d="M4.667 26.667q-0.8 0-1.4-0.6t-0.6-1.4v-17.333q0-0.8 0.6-1.4t1.4-0.6h22.667q0.8 0 1.4 0.6t0.6 1.4v17.333q0 0.8-0.6 1.4t-1.4 0.6h-22.667zM16 16.6l-11.333-7.433v15.5h22.667v-15.5l-11.333 7.433zM16 14.6l11.2-7.267h-22.367l11.167 7.267zM4.667 9.167v0z"></path>
</symbol>
</defs>
</svg>
